<svg width="22" height="22" viewBox="0 0 22 22" fill="none" xmlns="http://www.w3.org/2000/svg">
<path fill-rule="evenodd" clip-rule="evenodd" d="M10.75 21.5C4.81294 21.5 0 16.6871 0 10.75C0 4.81294 4.81294 0 10.75 0C16.6871 0 21.5 4.81294 21.5 10.75C21.5 16.6871 16.6871 21.5 10.75 21.5ZM15.23 8.12756C15.7145 7.86257 15.8925 7.25493 15.6275 6.77038C15.3625 6.28582 14.7549 6.10782 14.2704 6.37282C12.4417 7.37286 10.9296 9.3029 9.9129 10.8596C9.5372 11.435 9.2162 11.9797 8.9594 12.4411C8.71984 12.2087 8.48258 12.007 8.27038 11.8392C7.9927 11.6197 7.74282 11.4465 7.56063 11.3272L7.24559 11.1315C6.76585 10.8579 6.15513 11.025 5.88152 11.5048C5.60797 11.9844 5.77493 12.5949 6.25442 12.8687L6.46471 13.0002C6.60752 13.0937 6.80764 13.2323 7.02997 13.4081C7.48753 13.7698 7.98126 14.244 8.29198 14.7635C8.48267 15.0823 8.8344 15.2691 9.2053 15.2487C9.5761 15.2282 9.9051 15.0036 10.0596 14.6659L10.1579 14.4605C10.2256 14.3221 10.327 14.1197 10.459 13.8704C10.7235 13.3707 11.1081 12.6872 11.5874 11.9532C12.5708 10.4475 13.8586 8.8775 15.23 8.12756Z" fill="#F3541C"/>
</svg>
